<?xml version="1.0" encoding="UTF-8"?>
<svg xmlns="http://www.w3.org/2000/svg" viewBox="0 0 252.53 172.63">
  <path fill="#FFFFFF" d="M241.98,19.89l-.47-.67h0c-8.44-11.59-21.08-18.21-34.8-18.21h-.14L3.31,1.13l66,43.9c9.19,6.11,19.71,9.34,30.43,9.35l79.77.02c5.2,0,9.99,2.61,13.12,7.16,3.25,4.71,4.18,10.89,2.5,16.5l-12.2,40.64,50.5-.04,16.22-54c4.17-15.62,1.38-31.96-7.65-44.79Z"/>
  <path fill="#FFFFFF" d="M89.72,118h.15l77.63.45-74.41-44.87c-13.33-8.04-27.85-9.12-41.97-3.12-11.31,4.81-20.63,15.52-24.94,28.66l-15.1,46,41.78,25.99,11.47-34.7c3.65-11.02,13.85-18.42,25.38-18.42Z"/>
</svg>
